<svg xmlns="http://www.w3.org/2000/svg" width="250" height="65" viewBox="0 0 250 65">
  <g id="Gruppe_20" data-name="Gruppe 20" transform="translate(-437 -339)">
    <g id="Pfad_28" data-name="Pfad 28" fill="#bade57" stroke-miterlimit="10">
      <path d="M 676.9099731445313 402 L 506.9378051757813 402 C 506.4440612792969 398.0591430664063 503.072509765625 395 499 395 C 494.927490234375 395 491.5559387207031 398.0591430664063 491.0621948242188 402 L 490.9549560546875 402 C 490.4483032226563 396.4011840820313 485.7285461425781 392 480 392 C 474.2714538574219 392 469.5516967773438 396.4011840820313 469.0450744628906 402 L 447.0899963378906 402 C 442.6291809082031 402 439 398.3708190917969 439 393.9100036621094 L 439 349.0899963378906 C 439 344.6291809082031 442.6291809082031 341 447.0899963378906 341 L 616.200927734375 341 C 617.130126953125 345.5587768554688 621.1708374023438 349 626 349 C 630.8291625976563 349 634.869873046875 345.5587768554688 635.799072265625 341 L 676.9099731445313 341 C 681.370849609375 341 685 344.6291809082031 685 349.0899963378906 L 685 393.9100036621094 C 685 398.3708190917969 681.370849609375 402 676.9099731445313 402 Z" stroke="none"/>
      <path d="M 447.0899658203125 343 C 443.73193359375 343 441 345.7319641113281 441 349.0899963378906 L 441 393.9100036621094 C 441 397.2680358886719 443.73193359375 400 447.0899658203125 400 L 467.349365234375 400 C 468.7070922851563 394.2731018066406 473.8638916015625 390 480 390 C 484.8458862304688 390 489.0809326171875 392.6649780273438 491.31640625 396.6065063476563 C 493.1522827148438 394.4039306640625 495.9152221679688 393 499 393 C 503.4693603515625 393 507.2632446289063 395.9469604492188 508.5404052734375 400 L 676.9099731445313 400 C 680.2680053710938 400 683 397.2680358886719 683 393.9100036621094 L 683 349.0899963378906 C 683 345.7319641113281 680.2680053710938 343 676.9099731445313 343 L 637.3145751953125 343 C 635.6636962890625 347.6562805175781 631.2150268554688 351 626 351 C 620.7849731445313 351 616.3363037109375 347.6562805175781 614.6854248046875 343 L 447.0899658203125 343 M 447.0899658203125 339 L 618 339 C 618 343.4200134277344 621.5799560546875 347 626 347 C 630.4200439453125 347 634 343.4200134277344 634 339 L 676.9099731445313 339 C 682.47998046875 339 687 343.5199890136719 687 349.0899963378906 L 687 393.9100036621094 C 687 399.4800109863281 682.47998046875 404 676.9099731445313 404 L 504.9100341796875 404 C 504.969970703125 403.6799926757813 505 403.3399963378906 505 403 C 505 399.6900024414063 502.3099975585938 397 499 397 C 495.6900024414063 397 493 399.6900024414063 493 403 C 493 403.3399963378906 493.030029296875 403.6799926757813 493.0899658203125 404 L 488.9400024414063 404 C 488.97998046875 403.6700134277344 489 403.3399963378906 489 403 C 489 398.0299987792969 484.969970703125 394 480 394 C 475.030029296875 394 471 398.0299987792969 471 403 C 471 403.3399963378906 471.02001953125 403.6700134277344 471.0599975585938 404 L 447.0899658203125 404 C 441.52001953125 404 437 399.4800109863281 437 393.9100036621094 L 437 349.0899963378906 C 437 343.5199890136719 441.52001953125 339 447.0899658203125 339 Z" stroke="none" fill="#32431a"/>
    </g>
    <path id="Pfad_29" data-name="Pfad 29" d="M441,393a10.042,10.042,0,0,0,6-5c2-4,2-23,5-27s8.07-6.01,15-7c7-1,32.464-2.464,36-6,2-2,3-7,3-7H445l-6,5v48Z" fill="#d5f96d"/>
    <path id="Pfad_30" data-name="Pfad 30" d="M683,350a10.042,10.042,0,0,0-6,5c-2,4-2,23-5,27s-8.07,6.01-15,7c-7,1-32.464,2.464-36,6-2,2-3,7-3,7h61l6-5V349Z" fill="#6edb59"/>
    <g id="Pfad_31" data-name="Pfad 31" fill="none" stroke-miterlimit="10">
      <path d="M687,349.09v44.82A10.093,10.093,0,0,1,676.91,404h-172a5.471,5.471,0,0,0,.09-1,6,6,0,0,0-12,0,5.471,5.471,0,0,0,.09,1h-4.15a8.26,8.26,0,0,0,.06-1,9,9,0,0,0-18,0,8.26,8.26,0,0,0,.06,1H447.09A10.093,10.093,0,0,1,437,393.91V349.09A10.093,10.093,0,0,1,447.09,339H618a8,8,0,0,0,16,0h42.91A10.093,10.093,0,0,1,687,349.09Z" stroke="none"/>
      <path d="M 447.0899658203125 343 C 443.73193359375 343 441 345.7319641113281 441 349.0899963378906 L 441 393.9100036621094 C 441 397.2680358886719 443.73193359375 400 447.0899658203125 400 L 467.349365234375 400 C 468.7070922851563 394.2731018066406 473.8638916015625 390 480 390 C 484.8458862304688 390 489.0809326171875 392.6649780273438 491.31640625 396.6065063476563 C 493.1522827148438 394.4039306640625 495.9152221679688 393 499 393 C 503.4693603515625 393 507.2632446289063 395.9469604492188 508.5404052734375 400 L 676.9099731445313 400 C 680.2680053710938 400 683 397.2680358886719 683 393.9100036621094 L 683 349.0899963378906 C 683 345.7319641113281 680.2680053710938 343 676.9099731445313 343 L 637.3145751953125 343 C 635.6636962890625 347.6562805175781 631.2150268554688 351 626 351 C 620.7849731445313 351 616.3363037109375 347.6562805175781 614.6854248046875 343 L 447.0899658203125 343 M 447.0899658203125 339 L 618 339 C 618 343.4200134277344 621.5799560546875 347 626 347 C 630.4200439453125 347 634 343.4200134277344 634 339 L 676.9099731445313 339 C 682.47998046875 339 687 343.5199890136719 687 349.0899963378906 L 687 393.9100036621094 C 687 399.4800109863281 682.47998046875 404 676.9099731445313 404 L 504.9100341796875 404 C 504.969970703125 403.6799926757813 505 403.3399963378906 505 403 C 505 399.6900024414063 502.3099975585938 397 499 397 C 495.6900024414063 397 493 399.6900024414063 493 403 C 493 403.3399963378906 493.030029296875 403.6799926757813 493.0899658203125 404 L 488.9400024414063 404 C 488.97998046875 403.6700134277344 489 403.3399963378906 489 403 C 489 398.0299987792969 484.969970703125 394 480 394 C 475.030029296875 394 471 398.0299987792969 471 403 C 471 403.3399963378906 471.02001953125 403.6700134277344 471.0599975585938 404 L 447.0899658203125 404 C 441.52001953125 404 437 399.4800109863281 437 393.9100036621094 L 437 349.0899963378906 C 437 343.5199890136719 441.52001953125 339 447.0899658203125 339 Z" stroke="none" fill="#32431a"/>
    </g>
  </g>
</svg>
