<svg xmlns="http://www.w3.org/2000/svg" viewBox="0 0 250 65"><defs><style>.cls-1{fill:#a8c695;}.cls-2{fill:#bade57;}.cls-3{fill:#32431a;}.cls-4{fill:#dbe2c0;}.cls-5{fill:#95ad86;}</style></defs><title>button-3options-2nd-selected</title><g id="Ebene_2" data-name="Ebene 2"><g id="Ebene_1-2" data-name="Ebene 1"><path class="cls-1" d="M165,0h75a10,10,0,0,1,10,10V55a10,10,0,0,1-10,10H165a0,0,0,0,1,0,0V0A0,0,0,0,1,165,0Z"/><rect class="cls-2" x="83" y="2" width="84" height="61"/><path class="cls-3" d="M165,4V61H85V4h80m4-4H81V65h88V0Z"/><path class="cls-1" d="M10,0H85a0,0,0,0,1,0,0V65a0,0,0,0,1,0,0H10A10,10,0,0,1,0,55V10A10,10,0,0,1,10,0Z"/><path class="cls-4" d="M4.92,55a9.69,9.69,0,0,0,5.76-5c1.92-4,1.92-23,4.8-27s7.75-6,14.4-7S61,13.54,64.44,10c1.92-2,2.88-7,2.88-7H8.76L3,8V56Z"/><path class="cls-5" d="M245.08,10a9.69,9.69,0,0,0-5.76,5c-1.92,4-1.92,23-4.8,27s-7.75,6-14.4,7S189,51.46,185.56,55c-1.92,2-2.88,7-2.88,7h58.56L247,57V9Z"/><path class="cls-3" d="M240,4a6,6,0,0,1,6,6V55a6,6,0,0,1-6,6H169V4h71m0-4H165V65h75a10,10,0,0,0,10-10V10A10,10,0,0,0,240,0Z"/><path class="cls-3" d="M165,4V61H85V4h80m4-4H81V65h88V0Z"/><path class="cls-3" d="M81,4V61H10a6,6,0,0,1-6-6V10a6,6,0,0,1,6-6H81m4-4H10A10,10,0,0,0,0,10V55A10,10,0,0,0,10,65H85V0Z"/></g></g></svg>