<svg xmlns="http://www.w3.org/2000/svg" viewBox="0 0 250 65"><defs><style>.cls-1{fill:#a8c695;}.cls-2{fill:#dbe2c0;}.cls-3{fill:#bade57;}.cls-4{fill:#6edb59;}.cls-5{fill:#32431a;}</style></defs><title>Element 5</title><g id="Ebene_2" data-name="Ebene 2"><g id="Ebene_1-2" data-name="Ebene 1"><path class="cls-1" d="M10,0H127a0,0,0,0,1,0,0V65a0,0,0,0,1,0,0H10A10,10,0,0,1,0,55V10A10,10,0,0,1,10,0Z"/><path class="cls-2" d="M3.92,54a9.69,9.69,0,0,0,5.76-5c1.92-4,1.92-23,4.8-27s7.75-6,14.4-7,31.17-2.46,34.56-6c1.92-2,2.88-7,2.88-7H7.76L2,7V55Z"/><path class="cls-3" d="M123,0H240a10,10,0,0,1,10,10V55a10,10,0,0,1-10,10H123a0,0,0,0,1,0,0V0A0,0,0,0,1,123,0Z"/><path class="cls-4" d="M245.08,11a9.69,9.69,0,0,0-5.76,5c-1.92,4-1.92,23-4.8,27s-7.75,6-14.4,7S189,52.46,185.56,56c-1.92,2-2.88,7-2.88,7h58.56L247,58V10Z"/><path class="cls-5" d="M123,4V61H10a6,6,0,0,1-6-6V10a6,6,0,0,1,6-6H123m4-4H10A10,10,0,0,0,0,10V55A10,10,0,0,0,10,65H127V0Z"/><path class="cls-5" d="M240,4a6,6,0,0,1,6,6V55a6,6,0,0,1-6,6H127V4H240m0-4H123V65H240a10,10,0,0,0,10-10V10A10,10,0,0,0,240,0Z"/></g></g></svg>