<svg xmlns="http://www.w3.org/2000/svg" viewBox="0 0 250 65"><defs><style>.cls-1{fill:#bade57;}.cls-2{fill:#32431a;}.cls-3{fill:#d5f96d;}.cls-4{fill:#6edb59;}</style></defs><title>button-alt</title><g id="Ebene_2" data-name="Ebene 2"><g id="Ebene_1-2" data-name="Ebene 1"><path class="cls-1" d="M179.94,63a8,8,0,0,0-15.88,0H164A11,11,0,0,0,142,63h-132A8.1,8.1,0,0,1,2,54.91V10.09A8.1,8.1,0,0,1,10.09,2H69.2A10,10,0,0,0,79,10a10,10,0,0,0,9.8-8H239.91A8.1,8.1,0,0,1,248,10.09V54.91A8.1,8.1,0,0,1,239.91,63Z"/><path class="cls-2" d="M239.91,4A6.1,6.1,0,0,1,246,10.09V54.91A6.1,6.1,0,0,1,239.91,61H181.54a10,10,0,0,0-17.22-3.39,13,13,0,0,0-24,3.39H10.09A6.1,6.1,0,0,1,4,54.91V10.09A6.1,6.1,0,0,1,10.09,4h57.6A12,12,0,0,0,79,12,12,12,0,0,0,90.31,4h149.6m0-4H87A8,8,0,0,1,71,0H10.09A10.09,10.09,0,0,0,0,10.09V54.91A10.09,10.09,0,0,0,10.09,65h134a8.26,8.26,0,0,1-.06-1,9,9,0,0,1,18,0,8.26,8.26,0,0,1-.06,1h4.15a5.47,5.47,0,0,1-.09-1,6,6,0,0,1,12,0,5.47,5.47,0,0,1-.09,1h62A10.09,10.09,0,0,0,250,54.91V10.09A10.09,10.09,0,0,0,239.91,0Z"/><path class="cls-3" d="M4,54a10,10,0,0,0,6-5c2-4,2-23,5-27s8.07-6,15-7,32.46-2.46,36-6c2-2,3-7,3-7H8L2,7V55Z"/><path class="cls-4" d="M246,11a10,10,0,0,0-6,5c-2,4-2,23-5,27s-8.07,6-15,7-32.46,2.46-36,6c-2,2-3,7-3,7h61l6-5V10Z"/><path class="cls-2" d="M239.91,4A6.1,6.1,0,0,1,246,10.09V54.91A6.1,6.1,0,0,1,239.91,61H181.54a10,10,0,0,0-17.22-3.39,13,13,0,0,0-24,3.39H10.09A6.1,6.1,0,0,1,4,54.91V10.09A6.1,6.1,0,0,1,10.09,4h57.6A12,12,0,0,0,79,12,12,12,0,0,0,90.31,4h149.6m0-4H87A8,8,0,0,1,71,0H10.09A10.09,10.09,0,0,0,0,10.09V54.91A10.09,10.09,0,0,0,10.09,65h134a8.26,8.26,0,0,1-.06-1,9,9,0,0,1,18,0,8.26,8.26,0,0,1-.06,1h4.15a5.47,5.47,0,0,1-.09-1,6,6,0,0,1,12,0,5.47,5.47,0,0,1-.09,1h62A10.09,10.09,0,0,0,250,54.91V10.09A10.09,10.09,0,0,0,239.91,0Z"/></g></g></svg>