<svg xmlns="http://www.w3.org/2000/svg" viewBox="0 0 250 65"><defs><style>.cls-1{fill:#a8c695;}.cls-2{fill:#95ad86;}.cls-3{fill:#bade57;}.cls-4{fill:#d5f96d;}.cls-5{fill:#32431a;}</style></defs><title>Element 6</title><g id="Ebene_2" data-name="Ebene 2"><g id="Ebene_1-2" data-name="Ebene 1"><path class="cls-1" d="M133,0H250a0,0,0,0,1,0,0V65a0,0,0,0,1,0,0H133a10,10,0,0,1-10-10V10A10,10,0,0,1,133,0Z" transform="translate(373 65) rotate(180)"/><path class="cls-2" d="M246.08,11a9.69,9.69,0,0,0-5.76,5c-1.92,4-1.92,23-4.8,27s-7.75,6-14.4,7S190,52.46,186.56,56c-1.92,2-2.88,7-2.88,7h58.56L248,58V10Z"/><path class="cls-3" d="M0,0H117a10,10,0,0,1,10,10V55a10,10,0,0,1-10,10H0a0,0,0,0,1,0,0V0A0,0,0,0,1,0,0Z" transform="translate(127 65) rotate(180)"/><path class="cls-4" d="M4.92,54a9.69,9.69,0,0,0,5.76-5c1.92-4,1.92-23,4.8-27s7.75-6,14.4-7,31.17-2.46,34.56-6c1.92-2,2.88-7,2.88-7H8.76L3,7V55Z"/><path class="cls-5" d="M240,4a6,6,0,0,1,6,6V55a6,6,0,0,1-6,6H127V4H240m0-4H123V65H240a10,10,0,0,0,10-10V10A10,10,0,0,0,240,0Z"/><path class="cls-5" d="M123,4V61H10a6,6,0,0,1-6-6V10a6,6,0,0,1,6-6H123m4-4H10A10,10,0,0,0,0,10V55A10,10,0,0,0,10,65H127V0Z"/></g></g></svg>