<svg xmlns="http://www.w3.org/2000/svg" viewBox="0 0 130 65"><defs><style>.cls-1{fill:#bade57;}.cls-2{fill:#32431a;}.cls-3{fill:#d5f96d;}.cls-4{fill:#6edb59;}</style></defs><title>button-small</title><g id="Ebene_2" data-name="Ebene 2"><g id="Ebene_1-2" data-name="Ebene 1"><path class="cls-1" d="M44,63A11,11,0,0,0,22,63h-12A8.1,8.1,0,0,1,2,54.91V10.09A8.1,8.1,0,0,1,10.09,2H69.2A10,10,0,0,0,79,10a10,10,0,0,0,9.8-8h31.11A8.1,8.1,0,0,1,128,10.09V54.91A8.1,8.1,0,0,1,119.91,63Z"/><path class="cls-2" d="M119.91,4A6.1,6.1,0,0,1,126,10.09V54.91A6.1,6.1,0,0,1,119.91,61H45.65a13,13,0,0,0-25.3,0H10.09A6.1,6.1,0,0,1,4,54.91V10.09A6.1,6.1,0,0,1,10.09,4h57.6A12,12,0,0,0,79,12,12,12,0,0,0,90.31,4h29.6m0-4H87A8,8,0,0,1,71,0H10.09A10.09,10.09,0,0,0,0,10.09V54.91A10.09,10.09,0,0,0,10.09,65h14A8.27,8.27,0,0,1,24,64a9,9,0,0,1,18,0,8.27,8.27,0,0,1-.06,1h78A10.09,10.09,0,0,0,130,54.91V10.09A10.09,10.09,0,0,0,119.91,0Z"/><path class="cls-3" d="M4,54a10,10,0,0,0,6-5c2-4,2-23,5-27s8.07-6,15-7,32.46-2.46,36-6c2-2,3-7,3-7H8L2,7V55Z"/><path class="cls-4" d="M126,11a10,10,0,0,0-6,5c-2,4-2,23-5,27s-8.07,6-15,7-32.46,2.46-36,6c-2,2-3,7-3,7h61l6-5V10Z"/><path class="cls-2" d="M119.91,4A6.1,6.1,0,0,1,126,10.09V54.91A6.1,6.1,0,0,1,119.91,61H45.65a13,13,0,0,0-25.3,0H10.09A6.1,6.1,0,0,1,4,54.91V10.09A6.1,6.1,0,0,1,10.09,4h57.6A12,12,0,0,0,79,12,12,12,0,0,0,90.31,4h29.6m0-4H87A8,8,0,0,1,71,0H10.09A10.09,10.09,0,0,0,0,10.09V54.91A10.09,10.09,0,0,0,10.09,65h14A8.27,8.27,0,0,1,24,64a9,9,0,0,1,18,0,8.27,8.27,0,0,1-.06,1h78A10.09,10.09,0,0,0,130,54.91V10.09A10.09,10.09,0,0,0,119.91,0Z"/></g></g></svg>