<svg xmlns="http://www.w3.org/2000/svg" viewBox="0 0 250 65"><defs><style>.cls-1{fill:#ed1c24;}.cls-2{fill:#32431a;}.cls-3{fill:blue;}.cls-4{fill:#f4404e;}.cls-5{fill:#0909d8;}</style></defs><title>team-display</title><g id="Ebene_2" data-name="Ebene 2"><g id="Ebene_1-2" data-name="Ebene 1"><path class="cls-1" d="M69,64a7,7,0,0,0-14,0H53a10,10,0,0,0-20,0H10.09A9.1,9.1,0,0,1,1,54.91V10.09A9.1,9.1,0,0,1,10.09,1H123.67l-7.92,27.43,17.81,4.22L118.37,64Z"/><path class="cls-2" d="M122.34,2l-7.26,25.15-.58,2,2,.48,15.58,3.69L117.75,63H69.94a8,8,0,0,0-15.88,0H54A11,11,0,0,0,32,63h-22A8.1,8.1,0,0,1,2,54.91V10.09A8.1,8.1,0,0,1,10.09,2H122.34M125,0H10.09A10.09,10.09,0,0,0,0,10.09V54.91A10.09,10.09,0,0,0,10.09,65h24A8.27,8.27,0,0,1,34,64a9,9,0,0,1,18,0,8.27,8.27,0,0,1-.06,1h4.15A5.47,5.47,0,0,1,56,64a6,6,0,0,1,12,0,5.47,5.47,0,0,1-.09,1H119l16-33L117,27.7,125,0Z"/><path class="cls-3" d="M119.6,64l15.85-32.72L117.25,27l7.5-26h54.3A9,9,0,0,0,188,9a9,9,0,0,0,8.94-8h42A9.1,9.1,0,0,1,248,10.09V54.91A9.1,9.1,0,0,1,238.91,64Z"/><path class="cls-2" d="M238.91,2A8.1,8.1,0,0,1,247,10.09V54.91A8.1,8.1,0,0,1,238.91,63H121.19L135.8,32.84l1.09-2.24L134.46,30l-16-3.79L125.5,2h52.7a10,10,0,0,0,9.8,8,10,10,0,0,0,9.8-8h41.11m0-2H196a8,8,0,0,1-16,0H124l-8,27.7L134,32,118,65H238.91A10.09,10.09,0,0,0,249,54.91V10.09A10.09,10.09,0,0,0,238.91,0Z"/><path class="cls-4" d="M4,54a10,10,0,0,0,6-5c2-4,2-23,5-27s8.07-6,15-7,32.46-2.46,36-6c2-2,3-7,3-7H8L2,7V55Z"/><path class="cls-5" d="M246,11a10,10,0,0,0-6,5c-2,4-2,23-5,27s-8.07,6-15,7-32.46,2.46-36,6c-2,2-3,7-3,7h61l6-5V10Z"/><path class="cls-2" d="M239.91,4A6.1,6.1,0,0,1,246,10.09V54.91A6.1,6.1,0,0,1,239.91,61H71.54a10,10,0,0,0-17.22-3.39,13,13,0,0,0-24,3.39H10.09A6.1,6.1,0,0,1,4,54.91V10.09A6.1,6.1,0,0,1,10.09,4h167.6A12,12,0,0,0,189,12a12,12,0,0,0,11.31-8h39.6m0-4H197a8,8,0,0,1-16,0H10.09A10.09,10.09,0,0,0,0,10.09V54.91A10.09,10.09,0,0,0,10.09,65h24A8.26,8.26,0,0,1,34,64a9,9,0,0,1,18,0,8.26,8.26,0,0,1-.06,1h4.15A5.47,5.47,0,0,1,56,64a6,6,0,0,1,12,0,5.47,5.47,0,0,1-.09,1h172A10.09,10.09,0,0,0,250,54.91V10.09A10.09,10.09,0,0,0,239.91,0Z"/></g></g></svg>