<?xml version="1.0" standalone="no"?>
<!DOCTYPE svg PUBLIC "-//W3C//DTD SVG 1.1//EN" "http://www.w3.org/Graphics/SVG/1.1/DTD/svg11.dtd" >
<svg>
<metadata>
Created by FontForge 20110222 at Tue Feb 21 01:15:22 2012
 By www-data
(c) 2009, 2012 JVEnaguas Productions, Inc. Some Rights Reserved.
</metadata>
<defs>
<font id="CartonSix" horiz-adv-x="1032" >
  <font-face 
    font-family="Carton Six"
    font-weight="400"
    font-stretch="normal"
    units-per-em="2048"
    panose-1="2 11 6 1 1 1 1 1 1 1"
    ascent="1638"
    descent="-410"
    x-height="1272"
    cap-height="1373"
    bbox="34.5056 -394.159 1787 1898"
    underline-thickness="150"
    underline-position="-142"
    unicode-range="U+0020-2026"
  />
    <missing-glyph />
    <glyph glyph-name="space" unicode=" " horiz-adv-x="400" 
 />
    <glyph glyph-name="space" unicode="&#xa0;" horiz-adv-x="400" 
 />
    <glyph glyph-name="exclam" unicode="!" horiz-adv-x="363" 
d="M48 -4q-9 162 -13 277l281 12l-13 -285zM83 415q-8 572 -25 1029l270 13q-35 -648 -48 -1037z" />
    <glyph glyph-name="quotedbl" unicode="&#x22;" horiz-adv-x="731" 
d="M48 1162l-13 287l283 9q20 -311 -49 -440.5t-186 -133.5l-17 130q113 31 121 161zM418 1162l-13 287l283 9q20 -311 -49 -440.5t-186 -133.5l-17 130q113 31 121 161z" />
    <glyph glyph-name="dollar" unicode="$" horiz-adv-x="923" 
d="M41 423l204 19q32 -313 201.5 -296.5t183.5 158t-280.5 281t-304.5 457t269.5 432t426.5 -63t133 -485.5l-248 -19q-20 365 -157 359t-175.5 -169.5t95 -264t296 -196.5t183 -251.5t-106.5 -328.5t-421 -141.5t-299 509.5zM531 1704q10 -873 1 -2006l-149 -13
q17 1218 -4 2015z" />
    <glyph glyph-name="ampersand" unicode="&#x26;" horiz-adv-x="1010" 
d="M660.5 78q-147.5 -93 -357.5 -31.5t-239 339.5t188 389q-150 109 -163 314t116.5 339t357 81.5t265.5 -404.5l-220 -34q-4 229 -156 226t-139 -214t241 -217l10 -171q-300 -34 -285.5 -243t189 -209.5t130.5 364.5l344 57l33 -179l-151 -37q-16 -277 -163.5 -370z" />
    <glyph glyph-name="quotesingle" unicode="'" horiz-adv-x="373" 
d="M48 1162l-13 287l283 9q20 -311 -49 -440.5t-186 -133.5l-17 130q113 31 121 161z" />
    <glyph glyph-name="comma" unicode="," horiz-adv-x="373" 
d="M48 -13l-13 287l283 9q20 -311 -49 -440.5t-186 -133.5l-17 130q113 31 121 161z" />
    <glyph glyph-name="hyphen" unicode="-" horiz-adv-x="701" 
d="M57 757l596 17l-13 -239l-587 22z" />
    <glyph glyph-name="period" unicode="." horiz-adv-x="351" 
d="M48 -4q-9 162 -13 277l281 12l-13 -285z" />
    <glyph glyph-name="zero" unicode="0" horiz-adv-x="965" 
d="M181.5 273q-146.5 216 -114.5 594t259 505t415.5 -84.5t146.5 -628.5t-301 -509.5t-405.5 123.5zM675.5 723q21.5 268 -79 401t-213 12.5t-104.5 -386t76.5 -360t183.5 -15t136.5 347.5z" />
    <glyph glyph-name="one" unicode="1" horiz-adv-x="386" 
d="M338 98l-197 -4q-4 430 -3 1065h-103l1 199l315 4q-13 -635 -13 -1264z" />
    <glyph glyph-name="two" unicode="2" horiz-adv-x="806" 
d="M190.5 1424.5q155.5 123.5 362.5 65t197 -411.5t-433 -708l454 -15l-4 -218l-680 20l-23 227q437 366 468.5 637.5t-115 275t-156.5 -236.5l-210 15q-16 226 139.5 349.5z" />
    <glyph glyph-name="three" unicode="3" horiz-adv-x="863" 
d="M39 448l219 35q-2 -241 155 -240.5t171.5 209.5t-285.5 243l10 171q228 6 241 217t-139 214t-156 -226l-220 34q38 352 265.5 404.5t357 -81.5t116.5 -339t-163 -314q217 -111 188 -389t-239 -339.5t-357.5 31.5t-163.5 370z" />
    <glyph glyph-name="four" unicode="4" horiz-adv-x="886" 
d="M726 631h121l4 -207l-120 -4v-316h-209v311l-478 9l-9 182q263 446 474 860h213zM529 627l-9 476q-145 -265 -248 -485z" />
    <glyph glyph-name="five" unicode="5" horiz-adv-x="896" 
d="M35 409l213 34q12 -311 189 -294t187.5 284t-153.5 295.5t-202 -142.5l-196 9l8 760l703 30l13 -222l-520 -38l-11 -284q98 145 323 82t248.5 -356.5t-99 -468.5t-400 -140.5t-303.5 451.5z" />
    <glyph glyph-name="six" unicode="6" horiz-adv-x="856" 
d="M508 812.5q141 -15.5 227 -122t61.5 -349.5t-206.5 -322t-368.5 53.5t-184.5 579.5t128.5 598t379 125t248.5 -404l-210 -4q7 213 -153 194t-174 -422q111 89 252 73.5zM405 228q141 -24 189.5 118.5t-40.5 238.5t-289 -13q-1 -320 140 -344z" />
    <glyph glyph-name="seven" unicode="7" horiz-adv-x="803" 
d="M760 1396l8 -258l-321 -1164l-238 26l309 1142l-478 -24l-5 250z" />
    <glyph glyph-name="eight" unicode="8" horiz-adv-x="850" 
d="M396 627q-168 -119 -149 -272t148.5 -162t172 106t4 205t-175.5 123zM529 925.5q34 55.5 28 148t-64 126.5t-147 18.5t-103.5 -141.5t148.5 -254q104 47 138 102.5zM217 725q-182 170 -166 392t126.5 290t250 61.5t233.5 -104.5t106.5 -245t-23.5 -230t-151 -159
q182 -105 202 -251t-20.5 -273.5t-162 -185t-255 -36.5t-219 106.5t-94.5 230.5t32 239t141 165z" />
    <glyph glyph-name="nine" unicode="9" horiz-adv-x="866" 
d="M358 555.5q-141 15.5 -232 132t-61.5 349.5t211.5 312t368.5 -53.5t184.5 -579.5t-108.5 -598t-364 -125t-283.5 374l210 34q23 -213 183 -194t144 422q-111 -89 -252 -73.5zM461 1140q-141 24 -189.5 -118.5t40.5 -238.5t289 13q1 320 -140 344z" />
    <glyph glyph-name="colon" unicode=":" horiz-adv-x="359" 
d="M52 136q-9 162 -13 277l281 12l-13 -285zM324 953q-162 -9 -277 -13l-12 281l285 -13z" />
    <glyph glyph-name="semicolon" unicode=";" horiz-adv-x="377" 
d="M324 953q-162 -9 -277 -13l-12 281l285 -13zM52 122l-13 287l283 9q20 -311 -49 -440.5t-186 -133.5l-17 130q113 31 121 161z" />
    <glyph glyph-name="question" unicode="?" horiz-adv-x="801" 
d="M264 -4q-9 162 -13 277l281 12l-13 -285zM190.5 1424.5q155.5 123.5 362.5 65t210 -389.5t-279 -477l-10 -221l-177 -2l-5 349q252 62 262 303t-136.5 244.5t-156.5 -236.5l-210 15q-16 226 139.5 349.5z" />
    <glyph glyph-name="A" unicode="A" 
d="M666 1467q135 -602 331 -1491h-245l-51 346l-376 14l-52 -406l-238 -4q123 644 265 1541h366zM340 581l346 -8q-97 410 -207 631z" />
    <glyph glyph-name="B" unicode="B" horiz-adv-x="953" 
d="M571.5 1372.5q201.5 -84.5 205 -385t-216.5 -391.5q358 -56 273 -438.5t-777 -345.5q-7 782 -21 1610q335 35 536.5 -49.5zM263 1161l16 -433q295 21 305 230.5t-321 202.5zM253 489l-5 -408q383 25 389 208t-384 200z" />
    <glyph glyph-name="C" unicode="C" horiz-adv-x="1061" 
d="M530.5 1177q-187.5 -79 -212 -407.5t95 -462t243 -93t123.5 369.5l220 -25q26 -101 -51.5 -344t-348 -267t-418 287.5t-84.5 724.5t434 486.5t477 -508.5l-250 -77q-41 395 -228.5 316z" />
    <glyph glyph-name="D" unicode="D" horiz-adv-x="979" 
d="M554.5 1422q205.5 -86 297.5 -441t-75 -664.5t-735 -254.5l-7 1421q314 25 519.5 -61zM253 1194l-5 -886q278 -10 367 165t22 435.5t-384 285.5z" />
    <glyph glyph-name="E" unicode="E" horiz-adv-x="728" 
d="M693 1406l-6 -314q-211 15 -434 18l6 -414l384 -4l-20 -234h-340v-289l400 6v-258q-309 9 -637 3q20 671 -11 1456q335 16 658 30z" />
    <glyph glyph-name="F" unicode="F" horiz-adv-x="697" 
d="M662 1380v-303l-402 9l-2 -415l334 9l-3 -224l-312 -5l20 -468l-238 -5q0 407 -24 1383z" />
    <glyph glyph-name="G" unicode="G" horiz-adv-x="1030" 
d="M959 924l-239 -24q8 378 -170 351t-243 -380.5t36.5 -518t239 -152t180.5 275.5l-253 -4l1 211l463 3q2 -564 -240.5 -694.5t-470.5 91t-166.5 825t480 593t382.5 -576.5z" />
    <glyph glyph-name="H" unicode="H" horiz-adv-x="875" 
d="M291 1449l-15 -679h333l4 595h221l6 -1348l-246 -6l15 529l-356 12l-5 -607l-207 6q0 865 -6 1504z" />
    <glyph glyph-name="I" unicode="I" horiz-adv-x="322" 
d="M287 1373q-22 -623 -8 -1334l-244 -7q25 571 7 1334z" />
    <glyph glyph-name="J" unicode="J" horiz-adv-x="897" 
d="M808 1432q54 -1128 -66 -1400.5t-391 -258.5t-316 504l249 41q11 -343 182.5 -292t111.5 1371z" />
    <glyph glyph-name="K" unicode="K" horiz-adv-x="1016" 
d="M42 -123q13 675 -7 1618l255 -5v-717q270 390 467 689l224 -154q-369 -453 -516 -664q308 -413 459 -584l-185 -180q-292 392 -462 614l-12 -605z" />
    <glyph glyph-name="L" unicode="L" horiz-adv-x="750" 
d="M66 -28q-25 868 -31 1393l224 20q-6 -819 0 -1150l452 21l4 -271z" />
    <glyph glyph-name="M" unicode="M" horiz-adv-x="1194" 
d="M318 1460l276 -963l152 1054l353 -17l60 -1545l-222 8q-14 503 -44 1176q-95 -547 -152 -967l-258 -11q-140 435 -237 896l6 -1049l-211 -15q12 485 -6 1398z" />
    <glyph glyph-name="N" unicode="N" horiz-adv-x="907" 
d="M312 1287l342 -906q3 213 -13 1061h226q-12 -582 5 -1540l-221 -10q-122 304 -388 938q-8 -417 3 -753l-220 -6q10 443 -11 1231z" />
    <glyph glyph-name="O" unicode="O" horiz-adv-x="1085" 
d="M201 195.5q-166 234.5 -129.5 595t294 481.5t471 -80.5t166 -599t-341.5 -514.5t-460 117.5zM805.5 629q24.5 212 -106.5 344t-280 12t-140 -329t108 -299.5t246.5 -15t172 287.5z" />
    <glyph glyph-name="P" unicode="P" horiz-adv-x="935" 
d="M35 1378q21 -749 34 -1356h211q-14 307 -15 1105q309 27 358.5 -144.5t-88 -248.5t-328.5 -84l-7 -264q524 96 612 387t-108 468t-669 137z" />
    <glyph glyph-name="Q" unicode="Q" horiz-adv-x="1067" 
d="M73.5 795q-38.5 -434 175 -626.5t462 -98.5t285 509t-129.5 649t-460 117.5t-332.5 -550.5zM688 1075.5q106 -117.5 115 -380t-147 -365t-287 21t-107 380t172 359t254 -15zM462 511l300 -664l172 107l-322 642z" />
    <glyph glyph-name="R" unicode="R" horiz-adv-x="903" 
d="M35 1408q21 -714 34 -1391h194q-15 253 2 1139q309 45 358.5 -116.5t-88 -266t-328.5 -111.5l-7 -210l189 20q107 -177 223 -580l253 51q-211 443 -299 578q231 141 266.5 375t-144.5 402.5t-653 109.5z" />
    <glyph glyph-name="S" unicode="S" horiz-adv-x="923" 
d="M41 423l204 19q32 -313 196.5 -296.5t178.5 158t-275.5 281t-299.5 457t269.5 432t426.5 -63t133 -485.5l-248 -19q-20 365 -157 359t-175.5 -169.5t95 -264t291 -196.5t178 -251.5t-106.5 -328.5t-416 -141.5t-294 509.5z" />
    <glyph glyph-name="T" unicode="T" horiz-adv-x="909" 
d="M868 1505l6 -301l-307 10q1 -689 24 -1109l-255 -13q25 440 13 1097q-146 0 -301 -26q7 108 -13 290q339 4 833 52z" />
    <glyph glyph-name="U" unicode="U" horiz-adv-x="921" 
d="M834.5 268.5q-51.5 -208.5 -275.5 -280t-374 134t-122 1103.5l232 7q-44 -819 39 -939t240 -14t84 1053l228 10q0 -866 -51.5 -1074.5z" />
    <glyph glyph-name="V" unicode="V" horiz-adv-x="1036" 
d="M342 90l-307 1253l224 46l231 -991l253 1013l258 -40l-413 -1276z" />
    <glyph glyph-name="W" unicode="W" horiz-adv-x="1422" 
d="M312 1450l90 -975l157 719l271 6l170 -777l131 1012l256 -32q-112 -609 -257 -1347h-272l-165 867l-185 -798l-218 -21q-115 646 -255 1283z" />
    <glyph glyph-name="X" unicode="X" horiz-adv-x="1051" 
d="M35 1334l248 44l220 -581l211 586l262 -24l-297 -712l337 -730l-231 -28l-281 601l-221 -524l-223 28l269 654z" />
    <glyph glyph-name="Y" unicode="Y" horiz-adv-x="1074" 
d="M35 1294l232 44l244 -547l307 575l221 -57l-430 -748q-3 -354 8 -609l-242 -7q23 401 20 619z" />
    <glyph glyph-name="Z" unicode="Z" horiz-adv-x="811" 
d="M724 1340l10 -287l-443 -800l485 31l-12 -270q-281 0 -705 -11l-6 256l426 813q-174 -8 -444 -25l6 261z" />
    <glyph glyph-name="a" unicode="a" 
d="M666 1467q135 -602 331 -1491h-245l-51 346l-376 14l-52 -406l-238 -4q123 644 265 1541h366zM340 581l346 -8q-97 410 -207 631z" />
    <glyph glyph-name="b" unicode="b" horiz-adv-x="953" 
d="M571.5 1372.5q201.5 -84.5 205 -385t-216.5 -391.5q358 -56 273 -438.5t-777 -345.5q-7 782 -21 1610q335 35 536.5 -49.5zM263 1161l16 -433q295 21 305 230.5t-321 202.5zM253 489l-5 -408q383 25 389 208t-384 200z" />
    <glyph glyph-name="c" unicode="c" horiz-adv-x="1061" 
d="M530.5 1177q-187.5 -79 -212 -407.5t95 -462t243 -93t123.5 369.5l220 -25q26 -101 -51.5 -344t-348 -267t-418 287.5t-84.5 724.5t434 486.5t477 -508.5l-250 -77q-41 395 -228.5 316z" />
    <glyph glyph-name="d" unicode="d" horiz-adv-x="979" 
d="M554.5 1422q205.5 -86 297.5 -441t-75 -664.5t-735 -254.5l-7 1421q314 25 519.5 -61zM253 1194l-5 -886q278 -10 367 165t22 435.5t-384 285.5z" />
    <glyph glyph-name="e" unicode="e" horiz-adv-x="728" 
d="M693 1406l-6 -314q-211 15 -434 18l6 -414l384 -4l-20 -234h-340v-289l400 6v-258q-309 9 -637 3q20 671 -11 1456q335 16 658 30z" />
    <glyph glyph-name="f" unicode="f" horiz-adv-x="697" 
d="M662 1380v-303l-402 9l-2 -415l334 9l-3 -224l-312 -5l20 -468l-238 -5q0 407 -24 1383z" />
    <glyph glyph-name="g" unicode="g" horiz-adv-x="1030" 
d="M959 924l-239 -24q8 378 -170 351t-243 -380.5t36.5 -518t239 -152t180.5 275.5l-253 -4l1 211l463 3q2 -564 -240.5 -694.5t-470.5 91t-166.5 825t480 593t382.5 -576.5z" />
    <glyph glyph-name="h" unicode="h" horiz-adv-x="875" 
d="M291 1449l-15 -679h333l4 595h221l6 -1348l-246 -6l15 529l-356 12l-5 -607l-207 6q0 865 -6 1504z" />
    <glyph glyph-name="i" unicode="i" horiz-adv-x="322" 
d="M287 1373q-22 -623 -8 -1334l-244 -7q25 571 7 1334z" />
    <glyph glyph-name="j" unicode="j" horiz-adv-x="897" 
d="M808 1432q54 -1128 -66 -1400.5t-391 -258.5t-316 504l249 41q11 -343 182.5 -292t111.5 1371z" />
    <glyph glyph-name="k" unicode="k" horiz-adv-x="1016" 
d="M42 -123q13 675 -7 1618l255 -5v-717q270 390 467 689l224 -154q-369 -453 -516 -664q308 -413 459 -584l-185 -180q-292 392 -462 614l-12 -605z" />
    <glyph glyph-name="l" unicode="l" horiz-adv-x="750" 
d="M66 -28q-25 868 -31 1393l224 20q-6 -819 0 -1150l452 21l4 -271z" />
    <glyph glyph-name="m" unicode="m" horiz-adv-x="1194" 
d="M318 1460l276 -963l152 1054l353 -17l60 -1545l-222 8q-14 503 -44 1176q-95 -547 -152 -967l-258 -11q-140 435 -237 896l6 -1049l-211 -15q12 485 -6 1398z" />
    <glyph glyph-name="n" unicode="n" horiz-adv-x="907" 
d="M312 1287l342 -906q3 213 -13 1061h226q-12 -582 5 -1540l-221 -10q-122 304 -388 938q-8 -417 3 -753l-220 -6q10 443 -11 1231z" />
    <glyph glyph-name="o" unicode="o" horiz-adv-x="1085" 
d="M201 195.5q-166 234.5 -129.5 595t294 481.5t471 -80.5t166 -599t-341.5 -514.5t-460 117.5zM805.5 629q24.5 212 -106.5 344t-280 12t-140 -329t108 -299.5t246.5 -15t172 287.5z" />
    <glyph glyph-name="p" unicode="p" horiz-adv-x="935" 
d="M35 1378q21 -749 34 -1356h211q-14 307 -15 1105q309 27 358.5 -144.5t-88 -248.5t-328.5 -84l-7 -264q524 96 612 387t-108 468t-669 137z" />
    <glyph glyph-name="q" unicode="q" horiz-adv-x="1067" 
d="M73.5 795q-38.5 -434 175 -626.5t462 -98.5t285 509t-129.5 649t-460 117.5t-332.5 -550.5zM688 1075.5q106 -117.5 115 -380t-147 -365t-287 21t-107 380t172 359t254 -15zM462 511l300 -664l172 107l-322 642z" />
    <glyph glyph-name="r" unicode="r" horiz-adv-x="903" 
d="M35 1408q21 -714 34 -1391h194q-15 253 2 1139q309 45 358.5 -116.5t-88 -266t-328.5 -111.5l-7 -210l189 20q107 -177 223 -580l253 51q-211 443 -299 578q231 141 266.5 375t-144.5 402.5t-653 109.5z" />
    <glyph glyph-name="s" unicode="s" horiz-adv-x="923" 
d="M41 423l204 19q32 -313 196.5 -296.5t178.5 158t-275.5 281t-299.5 457t269.5 432t426.5 -63t133 -485.5l-248 -19q-20 365 -157 359t-175.5 -169.5t95 -264t291 -196.5t178 -251.5t-106.5 -328.5t-416 -141.5t-294 509.5z" />
    <glyph glyph-name="t" unicode="t" horiz-adv-x="909" 
d="M868 1505l6 -301l-307 10q1 -689 24 -1109l-255 -13q25 440 13 1097q-146 0 -301 -26q7 108 -13 290q339 4 833 52z" />
    <glyph glyph-name="u" unicode="u" horiz-adv-x="921" 
d="M834.5 268.5q-51.5 -208.5 -275.5 -280t-374 134t-122 1103.5l232 7q-44 -819 39 -939t240 -14t84 1053l228 10q0 -866 -51.5 -1074.5z" />
    <glyph glyph-name="v" unicode="v" horiz-adv-x="1036" 
d="M342 90l-307 1253l224 46l231 -991l253 1013l258 -40l-413 -1276z" />
    <glyph glyph-name="w" unicode="w" horiz-adv-x="1422" 
d="M312 1450l90 -975l157 719l271 6l170 -777l131 1012l256 -32q-112 -609 -257 -1347h-272l-165 867l-185 -798l-218 -21q-115 646 -255 1283z" />
    <glyph glyph-name="x" unicode="x" horiz-adv-x="1051" 
d="M35 1334l248 44l220 -581l211 586l262 -24l-297 -712l337 -730l-231 -28l-281 601l-221 -524l-223 28l269 654z" />
    <glyph glyph-name="y" unicode="y" horiz-adv-x="1074" 
d="M35 1294l232 44l244 -547l307 575l221 -57l-430 -748q-3 -354 8 -609l-242 -7q23 401 20 619z" />
    <glyph glyph-name="z" unicode="z" horiz-adv-x="811" 
d="M724 1340l10 -287l-443 -800l485 31l-12 -270q-281 0 -705 -11l-6 256l426 813q-174 -8 -444 -25l6 261z" />
    <glyph glyph-name="exclamdown" unicode="&#xa1;" horiz-adv-x="363" 
d="M315 1383q9 -162 13 -277l-281 -12l13 285zM280 964q8 -572 25 -1029l-270 -13q35 648 48 1037z" />
    <glyph glyph-name="questiondown" unicode="&#xbf;" horiz-adv-x="801" 
d="M537 1383q9 -162 13 -277l-281 -12l13 285zM610.5 -45.5q-155.5 -123.5 -362.5 -65t-210 389.5t279 477l10 221l177 2l5 -349q-252 -62 -262 -303t136.5 -244.5t156.5 236.5l210 -15q16 -226 -139.5 -349.5z" />
    <glyph glyph-name="Agrave" unicode="&#xc0;" 
d="M666 1467q135 -602 331 -1491h-245l-51 346l-376 14l-52 -406l-238 -4q123 644 265 1541h366zM340 581l346 -8q-97 410 -207 631zM497 1529q-143 101 -253 169l93 149q142 -112 251 -210z" />
    <glyph glyph-name="Aacute" unicode="&#xc1;" 
d="M666 1467q135 -602 331 -1491h-245l-51 346l-376 14l-52 -406l-238 -4q123 644 265 1541h366zM340 581l346 -8q-97 410 -207 631zM365 1643q110 98 251 210l94 -149q-111 -68 -254 -169z" />
    <glyph glyph-name="Acircumflex" unicode="&#xc2;" 
d="M666 1467q135 -602 331 -1491h-245l-51 346l-376 14l-52 -406l-238 -4q123 644 265 1541h366zM340 581l346 -8q-97 410 -207 631zM806 1633l-86 -111l-227 122l-257 -123l-61 116l319 200z" />
    <glyph glyph-name="Atilde" unicode="&#xc3;" 
d="M666 1467q135 -602 331 -1491h-245l-51 346l-376 14l-52 -406l-238 -4q123 644 265 1541h366zM340 581l346 -8q-97 410 -207 631zM263 1798q130 34 288 -56.5t154 66.5l111 -8q-5 -203 -110.5 -237t-272 53t-163.5 -71l-130 -1q-7 220 123 254z" />
    <glyph glyph-name="Adieresis" unicode="&#xc4;" 
d="M666 1467q135 -602 331 -1491h-245l-51 346l-376 14l-52 -406l-238 -4q123 644 265 1541h366zM340 581l346 -8q-97 410 -207 631zM379.5 1767.5q39.5 -39.5 39.5 -94.5q0 -56 -39.5 -95.5t-94.5 -39.5q-56 0 -95 39.5t-39 95.5q0 55 39 94.5t95 39.5q55 0 94.5 -39.5z
M785.5 1767.5q39.5 -39.5 39.5 -94.5q0 -56 -39.5 -95.5t-94.5 -39.5q-56 0 -95 39.5t-39 95.5q0 55 39 94.5t95 39.5q55 0 94.5 -39.5z" />
    <glyph glyph-name="Aring" unicode="&#xc5;" 
d="M666 1467q135 -602 331 -1491h-245l-51 346l-376 14l-52 -406l-238 -4q123 644 265 1541h366zM340 581l346 -8q-97 410 -207 631zM601.5 1836.5q54.5 -54.5 54.5 -130.5q0 -77 -54.5 -131.5t-131.5 -54.5q-76 0 -130.5 54.5t-54.5 131.5q0 76 54.5 130.5t130.5 54.5
q77 0 131.5 -54.5zM475 1776q-32 0 -54 -20t-22 -49q0 -28 22 -48.5t54 -20.5t54 20.5t22 48.5q0 29 -22 49t-54 20z" />
    <glyph glyph-name="AE" unicode="&#xc6;" horiz-adv-x="1366" 
d="M340 581l346 -8l6 642l-213 -11zM35 -73q155 886 272 1553q604 -10 1024 22l-14 -318l-424 23l4 -420l376 -10l-9 -232h-344l-4 -290l393 8l8 -250h-644l14 308l-362 18l-53 -412h-237z" />
    <glyph glyph-name="Ccedilla" unicode="&#xc7;" horiz-adv-x="1061" 
d="M759 861l250 77q-106 582 -477 508.5t-434 -486.5t84.5 -724.5t418 -287.5t348 267t51.5 344l-220 25q0 -329 -123.5 -369.5t-243 93t-95 462t212 407.5t228.5 -316zM526 28l-18 -179q126 -6 143.5 -66.5t-74 -75t-91.5 81.5l-135 -17q28 -163 171 -166t203 50.5
t51 140.5t-138 123l5 111z" />
    <glyph glyph-name="Egrave" unicode="&#xc8;" horiz-adv-x="728" 
d="M693 1406l-6 -314q-211 15 -434 18l6 -414l384 -4l-20 -234h-340v-289l400 6v-258q-309 9 -637 3q20 671 -11 1456q335 16 658 30zM459 1529q-143 101 -253 169l93 149q142 -112 251 -210z" />
    <glyph glyph-name="Eacute" unicode="&#xc9;" horiz-adv-x="728" 
d="M693 1406l-6 -314q-211 15 -434 18l6 -414l384 -4l-20 -234h-340v-289l400 6v-258q-309 9 -637 3q20 671 -11 1456q335 16 658 30zM187 1643q110 98 251 210l94 -149q-111 -68 -254 -169z" />
    <glyph glyph-name="Ecircumflex" unicode="&#xca;" horiz-adv-x="728" 
d="M693 1406l-6 -314q-211 15 -434 18l6 -414l384 -4l-20 -234h-340v-289l400 6v-258q-309 9 -637 3q20 671 -11 1456q335 16 658 30zM668 1633l-86 -111l-227 122l-257 -123l-61 116l319 200z" />
    <glyph glyph-name="Edieresis" unicode="&#xcb;" horiz-adv-x="744" 
d="M695 1406l-5 -314q-212 15 -434 18l5 -414l384 -4l-20 -234h-340v-289l401 6v-258q-310 9 -637 3q19 671 -12 1456q335 16 658 30zM264 1767.5q39 -39.5 39 -94.5q0 -56 -39 -95.5t-95 -39.5q-55 0 -94.5 39.5t-39.5 95.5q0 55 39.5 94.5t94.5 39.5q56 0 95 -39.5z
M670 1767.5q39 -39.5 39 -94.5q0 -56 -39 -95.5t-95 -39.5q-55 0 -94.5 39.5t-39.5 95.5q0 55 39.5 94.5t94.5 39.5q56 0 95 -39.5z" />
    <glyph glyph-name="Igrave" unicode="&#xcc;" horiz-adv-x="414" 
d="M326 1373q-22 -623 -8 -1334l-244 -7q26 571 7 1334zM288 1529q-142 101 -253 169l94 149q141 -112 250 -210z" />
    <glyph glyph-name="Iacute" unicode="&#xcd;" horiz-adv-x="414" 
d="M335 1373q-23 -623 -9 -1334l-243 -7q25 571 7 1334zM35 1643q109 98 251 210l93 -149q-110 -68 -253 -169z" />
    <glyph glyph-name="Icircumflex" unicode="&#xce;" horiz-adv-x="701" 
d="M475 1373q-22 -623 -8 -1334l-244 -7q25 571 7 1334zM666 1633l-86 -111l-227 122l-257 -123l-61 116l319 200z" />
    <glyph glyph-name="Idieresis" unicode="&#xcf;" horiz-adv-x="744" 
d="M489 1373q-22 -623 -8 -1334l-244 -7q25 571 7 1334zM264 1767.5q39 -39.5 39 -94.5q0 -56 -39 -95.5t-95 -39.5q-55 0 -94.5 39.5t-39.5 95.5q0 55 39.5 94.5t94.5 39.5q56 0 95 -39.5zM670 1767.5q39 -39.5 39 -94.5q0 -56 -39 -95.5t-95 -39.5q-55 0 -94.5 39.5
t-39.5 95.5q0 55 39.5 94.5t94.5 39.5q56 0 95 -39.5z" />
    <glyph glyph-name="Eth" unicode="&#xd0;" horiz-adv-x="1103" 
d="M159 1483l7 -1421q568 -55 735 254.5t75 664.5t-297.5 441t-519.5 61zM761 908.5q67 -260.5 -22 -435.5t-367 -165l5 886q317 -25 384 -285.5zM35 654l519 -4l4 204l-515 8z" />
    <glyph glyph-name="Ntilde" unicode="&#xd1;" horiz-adv-x="907" 
d="M312 1287l342 -906q3 213 -13 1061h226q-12 -582 5 -1540l-221 -10q-122 304 -388 938q-8 -417 3 -753l-220 -6q10 443 -11 1231zM225 1798q130 34 288 -56.5t154 66.5l111 -8q-5 -203 -110.5 -237t-272 53t-163.5 -71l-130 -1q-7 220 123 254z" />
    <glyph glyph-name="Ograve" unicode="&#xd2;" horiz-adv-x="1085" 
d="M201 195.5q-166 234.5 -129.5 595t294 481.5t471 -80.5t166 -599t-341.5 -514.5t-460 117.5zM805.5 629q24.5 212 -106.5 344t-280 12t-140 -329t108 -299.5t246.5 -15t172 287.5zM595 1429q-143 101 -253 169l93 149q142 -112 251 -210z" />
    <glyph glyph-name="Oacute" unicode="&#xd3;" horiz-adv-x="1085" 
d="M201 195.5q-166 234.5 -129.5 595t294 481.5t471 -80.5t166 -599t-341.5 -514.5t-460 117.5zM805.5 629q24.5 212 -106.5 344t-280 12t-140 -329t108 -299.5t246.5 -15t172 287.5zM343 1543q110 98 251 210l94 -149q-111 -68 -254 -169z" />
    <glyph glyph-name="Ocircumflex" unicode="&#xd4;" horiz-adv-x="1085" 
d="M201 195.5q-166 234.5 -129.5 595t294 481.5t471 -80.5t166 -599t-341.5 -514.5t-460 117.5zM805.5 629q24.5 212 -106.5 344t-280 12t-140 -329t108 -299.5t246.5 -15t172 287.5zM844 1533l-86 -111l-227 122l-257 -123l-61 116l319 200z" />
    <glyph glyph-name="Otilde" unicode="&#xd5;" horiz-adv-x="1085" 
d="M201 195.5q-166 234.5 -129.5 595t294 481.5t471 -80.5t166 -599t-341.5 -514.5t-460 117.5zM805.5 629q24.5 212 -106.5 344t-280 12t-140 -329t108 -299.5t246.5 -15t172 287.5zM311 1678q130 34 288 -56.5t154 66.5l111 -8q-5 -203 -110.5 -237t-272 53t-163.5 -71
l-130 -1q-7 220 123 254z" />
    <glyph glyph-name="Odieresis" unicode="&#xd6;" horiz-adv-x="1085" 
d="M201 195.5q-166 234.5 -129.5 595t294 481.5t471 -80.5t166 -599t-341.5 -514.5t-460 117.5zM805.5 629q24.5 212 -106.5 344t-280 12t-140 -329t108 -299.5t246.5 -15t172 287.5zM419.5 1646.5q39.5 -39.5 39.5 -94.5q0 -56 -39.5 -95.5t-94.5 -39.5q-56 0 -95 39.5
t-39 95.5q0 55 39 94.5t95 39.5q55 0 94.5 -39.5zM825.5 1646.5q39.5 -39.5 39.5 -94.5q0 -56 -39.5 -95.5t-94.5 -39.5q-56 0 -95 39.5t-39 95.5q0 55 39 94.5t95 39.5q55 0 94.5 -39.5z" />
    <glyph glyph-name="Oslash" unicode="&#xd8;" horiz-adv-x="1085" 
d="M1002.5 592.5q47.5 397.5 -166 599t-471 80.5t-294 -481.5t129.5 -595t460 -117.5t341.5 514.5zM387 356.5q-99 90.5 -108 299.5t140 329t280 -12t106.5 -344t-172 -287.5t-246.5 15zM275 -167q308 755 703 1572l-199 95q-304 -760 -647 -1580z" />
    <glyph glyph-name="Ugrave" unicode="&#xd9;" horiz-adv-x="921" 
d="M834.5 268.5q-51.5 -208.5 -275.5 -280t-374 134t-122 1103.5l232 7q-44 -819 39 -939t240 -14t84 1053l228 10q0 -866 -51.5 -1074.5zM549 1429q-143 101 -253 169l93 149q142 -112 251 -210z" />
    <glyph glyph-name="Uacute" unicode="&#xda;" horiz-adv-x="921" 
d="M834.5 268.5q-51.5 -208.5 -275.5 -280t-374 134t-122 1103.5l232 7q-44 -819 39 -939t240 -14t84 1053l228 10q0 -866 -51.5 -1074.5zM297 1543q110 98 251 210l94 -149q-111 -68 -254 -169z" />
    <glyph glyph-name="Ucircumflex" unicode="&#xdb;" horiz-adv-x="921" 
d="M834.5 268.5q-51.5 -208.5 -275.5 -280t-374 134t-122 1103.5l232 7q-44 -819 39 -939t240 -14t84 1053l228 10q0 -866 -51.5 -1074.5zM778 1533l-86 -111l-227 122l-257 -123l-61 116l319 200z" />
    <glyph glyph-name="Udieresis" unicode="&#xdc;" horiz-adv-x="921" 
d="M834.5 268.5q-51.5 -208.5 -275.5 -280t-374 134t-122 1103.5l232 7q-44 -819 39 -939t240 -14t84 1053l228 10q0 -866 -51.5 -1074.5zM363.5 1646.5q39.5 -39.5 39.5 -94.5q0 -56 -39.5 -95.5t-94.5 -39.5q-56 0 -95 39.5t-39 95.5q0 55 39 94.5t95 39.5
q55 0 94.5 -39.5zM769.5 1646.5q39.5 -39.5 39.5 -94.5q0 -56 -39.5 -95.5t-94.5 -39.5q-56 0 -95 39.5t-39 95.5q0 55 39 94.5t95 39.5q55 0 94.5 -39.5z" />
    <glyph glyph-name="Yacute" unicode="&#xdd;" horiz-adv-x="1074" 
d="M35 1294l232 44l244 -547l307 575l221 -57l-430 -748q-3 -354 8 -609l-242 -7q23 401 20 619zM370 1563q110 98 251 210l94 -149q-111 -68 -254 -169z" />
    <glyph glyph-name="Thorn" unicode="&#xde;" horiz-adv-x="927" 
d="M701.5 389q190.5 177 92.5 513t-620 262l15 -264q188 73 323.5 -4t96 -248.5t-337.5 -164.5q-32 738 -25 965l-211 -20q2 -507 10 -1462l204 -4l8 278q254 -28 444.5 149z" />
    <glyph glyph-name="germandbls" unicode="&#xdf;" horiz-adv-x="1827" 
d="M41 423l204 19q32 -313 196.5 -296.5t178.5 158t-275.5 281t-299.5 457t269.5 432t426.5 -63t133 -485.5l-248 -19q-20 365 -157 359t-175.5 -169.5t95 -264t291 -196.5t178 -251.5t-106.5 -328.5t-416 -141.5t-294 509.5zM1787 1086l-235 -19q-32 313 -181.5 296.5
t-163.5 -178t276 -281t299.5 -437t-269.5 -431.5t-426 63t-133 485l248 19q19 -365 156.5 -358.5t176 169.5t-95.5 243.5t-291.5 176.5t-177.5 296.5t106.5 348.5t415.5 116.5t295 -509.5z" />
    <glyph glyph-name="agrave" unicode="&#xe0;" 
d="M666 1467q135 -602 331 -1491h-245l-51 346l-376 14l-52 -406l-238 -4q123 644 265 1541h366zM340 581l346 -8q-97 410 -207 631zM497 1529q-143 101 -253 169l93 149q142 -112 251 -210z" />
    <glyph glyph-name="aacute" unicode="&#xe1;" 
d="M666 1467q135 -602 331 -1491h-245l-51 346l-376 14l-52 -406l-238 -4q123 644 265 1541h366zM340 581l346 -8q-97 410 -207 631zM365 1643q110 98 251 210l94 -149q-111 -68 -254 -169z" />
    <glyph glyph-name="acircumflex" unicode="&#xe2;" 
d="M666 1467q135 -602 331 -1491h-245l-51 346l-376 14l-52 -406l-238 -4q123 644 265 1541h366zM340 581l346 -8q-97 410 -207 631zM806 1633l-86 -111l-227 122l-257 -123l-61 116l319 200z" />
    <glyph glyph-name="atilde" unicode="&#xe3;" 
d="M666 1467q135 -602 331 -1491h-245l-51 346l-376 14l-52 -406l-238 -4q123 644 265 1541h366zM340 581l346 -8q-97 410 -207 631zM263 1798q130 34 288 -56.5t154 66.5l111 -8q-5 -203 -110.5 -237t-272 53t-163.5 -71l-130 -1q-7 220 123 254z" />
    <glyph glyph-name="adieresis" unicode="&#xe4;" 
d="M666 1467q135 -602 331 -1491h-245l-51 346l-376 14l-52 -406l-238 -4q123 644 265 1541h366zM340 581l346 -8q-97 410 -207 631zM379.5 1767.5q39.5 -39.5 39.5 -94.5q0 -56 -39.5 -95.5t-94.5 -39.5q-56 0 -95 39.5t-39 95.5q0 55 39 94.5t95 39.5q55 0 94.5 -39.5z
M785.5 1767.5q39.5 -39.5 39.5 -94.5q0 -56 -39.5 -95.5t-94.5 -39.5q-56 0 -95 39.5t-39 95.5q0 55 39 94.5t95 39.5q55 0 94.5 -39.5z" />
    <glyph glyph-name="aring" unicode="&#xe5;" 
d="M666 1467q135 -602 331 -1491h-245l-51 346l-376 14l-52 -406l-238 -4q123 644 265 1541h366zM340 581l346 -8q-97 410 -207 631zM601.5 1836.5q54.5 -54.5 54.5 -130.5q0 -77 -54.5 -131.5t-131.5 -54.5q-76 0 -130.5 54.5t-54.5 131.5q0 76 54.5 130.5t130.5 54.5
q77 0 131.5 -54.5zM475 1776q-32 0 -54 -20t-22 -49q0 -28 22 -48.5t54 -20.5t54 20.5t22 48.5q0 29 -22 49t-54 20z" />
    <glyph glyph-name="ae" unicode="&#xe6;" horiz-adv-x="1366" 
d="M340 581l346 -8l6 642l-213 -11zM35 -73q155 886 272 1553q604 -10 1024 22l-14 -318l-424 23l4 -420l376 -10l-9 -232h-344l-4 -290l393 8l8 -250h-644l14 308l-362 18l-53 -412h-237z" />
    <glyph glyph-name="ccedilla" unicode="&#xe7;" horiz-adv-x="1061" 
d="M759 861l250 77q-106 582 -477 508.5t-434 -486.5t84.5 -724.5t418 -287.5t348 267t51.5 344l-220 25q0 -329 -123.5 -369.5t-243 93t-95 462t212 407.5t228.5 -316zM526 28l-18 -179q126 -6 143.5 -66.5t-74 -75t-91.5 81.5l-135 -17q28 -163 171 -166t203 50.5
t51 140.5t-138 123l5 111z" />
    <glyph glyph-name="egrave" unicode="&#xe8;" horiz-adv-x="728" 
d="M693 1406l-6 -314q-211 15 -434 18l6 -414l384 -4l-20 -234h-340v-289l400 6v-258q-309 9 -637 3q20 671 -11 1456q335 16 658 30zM459 1529q-143 101 -253 169l93 149q142 -112 251 -210z" />
    <glyph glyph-name="eacute" unicode="&#xe9;" horiz-adv-x="728" 
d="M693 1406l-6 -314q-211 15 -434 18l6 -414l384 -4l-20 -234h-340v-289l400 6v-258q-309 9 -637 3q20 671 -11 1456q335 16 658 30zM187 1643q110 98 251 210l94 -149q-111 -68 -254 -169z" />
    <glyph glyph-name="ecircumflex" unicode="&#xea;" horiz-adv-x="728" 
d="M693 1406l-6 -314q-211 15 -434 18l6 -414l384 -4l-20 -234h-340v-289l400 6v-258q-309 9 -637 3q20 671 -11 1456q335 16 658 30zM668 1633l-86 -111l-227 122l-257 -123l-61 116l319 200z" />
    <glyph glyph-name="edieresis" unicode="&#xeb;" horiz-adv-x="744" 
d="M695 1406l-5 -314q-212 15 -434 18l5 -414l384 -4l-20 -234h-340v-289l401 6v-258q-310 9 -637 3q19 671 -12 1456q335 16 658 30zM264 1767.5q39 -39.5 39 -94.5q0 -56 -39 -95.5t-95 -39.5q-55 0 -94.5 39.5t-39.5 95.5q0 55 39.5 94.5t94.5 39.5q56 0 95 -39.5z
M670 1767.5q39 -39.5 39 -94.5q0 -56 -39 -95.5t-95 -39.5q-55 0 -94.5 39.5t-39.5 95.5q0 55 39.5 94.5t94.5 39.5q56 0 95 -39.5z" />
    <glyph glyph-name="igrave" unicode="&#xec;" horiz-adv-x="414" 
d="M326 1373q-22 -623 -8 -1334l-244 -7q26 571 7 1334zM288 1529q-142 101 -253 169l94 149q141 -112 250 -210z" />
    <glyph glyph-name="iacute" unicode="&#xed;" horiz-adv-x="414" 
d="M335 1373q-23 -623 -9 -1334l-243 -7q25 571 7 1334zM35 1643q109 98 251 210l93 -149q-110 -68 -253 -169z" />
    <glyph glyph-name="icircumflex" unicode="&#xee;" horiz-adv-x="701" 
d="M475 1373q-22 -623 -8 -1334l-244 -7q25 571 7 1334zM666 1633l-86 -111l-227 122l-257 -123l-61 116l319 200z" />
    <glyph glyph-name="idieresis" unicode="&#xef;" horiz-adv-x="744" 
d="M489 1373q-22 -623 -8 -1334l-244 -7q25 571 7 1334zM264 1767.5q39 -39.5 39 -94.5q0 -56 -39 -95.5t-95 -39.5q-55 0 -94.5 39.5t-39.5 95.5q0 55 39.5 94.5t94.5 39.5q56 0 95 -39.5zM670 1767.5q39 -39.5 39 -94.5q0 -56 -39 -95.5t-95 -39.5q-55 0 -94.5 39.5
t-39.5 95.5q0 55 39.5 94.5t94.5 39.5q56 0 95 -39.5z" />
    <glyph glyph-name="eth" unicode="&#xf0;" horiz-adv-x="1103" 
d="M159 1483l7 -1421q568 -55 735 254.5t75 664.5t-297.5 441t-519.5 61zM761 908.5q67 -260.5 -22 -435.5t-367 -165l5 886q317 -25 384 -285.5zM35 654l519 -4l4 204l-515 8z" />
    <glyph glyph-name="ntilde" unicode="&#xf1;" horiz-adv-x="907" 
d="M312 1287l342 -906q3 213 -13 1061h226q-12 -582 5 -1540l-221 -10q-122 304 -388 938q-8 -417 3 -753l-220 -6q10 443 -11 1231zM225 1798q130 34 288 -56.5t154 66.5l111 -8q-5 -203 -110.5 -237t-272 53t-163.5 -71l-130 -1q-7 220 123 254z" />
    <glyph glyph-name="ograve" unicode="&#xf2;" horiz-adv-x="1085" 
d="M201 195.5q-166 234.5 -129.5 595t294 481.5t471 -80.5t166 -599t-341.5 -514.5t-460 117.5zM805.5 629q24.5 212 -106.5 344t-280 12t-140 -329t108 -299.5t246.5 -15t172 287.5zM595 1429q-143 101 -253 169l93 149q142 -112 251 -210z" />
    <glyph glyph-name="oacute" unicode="&#xf3;" horiz-adv-x="1085" 
d="M201 195.5q-166 234.5 -129.5 595t294 481.5t471 -80.5t166 -599t-341.5 -514.5t-460 117.5zM805.5 629q24.5 212 -106.5 344t-280 12t-140 -329t108 -299.5t246.5 -15t172 287.5zM343 1543q110 98 251 210l94 -149q-111 -68 -254 -169z" />
    <glyph glyph-name="ocircumflex" unicode="&#xf4;" horiz-adv-x="1085" 
d="M201 195.5q-166 234.5 -129.5 595t294 481.5t471 -80.5t166 -599t-341.5 -514.5t-460 117.5zM805.5 629q24.5 212 -106.5 344t-280 12t-140 -329t108 -299.5t246.5 -15t172 287.5zM844 1533l-86 -111l-227 122l-257 -123l-61 116l319 200z" />
    <glyph glyph-name="otilde" unicode="&#xf5;" horiz-adv-x="1085" 
d="M201 195.5q-166 234.5 -129.5 595t294 481.5t471 -80.5t166 -599t-341.5 -514.5t-460 117.5zM805.5 629q24.5 212 -106.5 344t-280 12t-140 -329t108 -299.5t246.5 -15t172 287.5zM311 1678q130 34 288 -56.5t154 66.5l111 -8q-5 -203 -110.5 -237t-272 53t-163.5 -71
l-130 -1q-7 220 123 254z" />
    <glyph glyph-name="odieresis" unicode="&#xf6;" horiz-adv-x="1085" 
d="M201 195.5q-166 234.5 -129.5 595t294 481.5t471 -80.5t166 -599t-341.5 -514.5t-460 117.5zM805.5 629q24.5 212 -106.5 344t-280 12t-140 -329t108 -299.5t246.5 -15t172 287.5zM419.5 1646.5q39.5 -39.5 39.5 -94.5q0 -56 -39.5 -95.5t-94.5 -39.5q-56 0 -95 39.5
t-39 95.5q0 55 39 94.5t95 39.5q55 0 94.5 -39.5zM825.5 1646.5q39.5 -39.5 39.5 -94.5q0 -56 -39.5 -95.5t-94.5 -39.5q-56 0 -95 39.5t-39 95.5q0 55 39 94.5t95 39.5q55 0 94.5 -39.5z" />
    <glyph glyph-name="oslash" unicode="&#xf8;" horiz-adv-x="1085" 
d="M1002.5 592.5q47.5 397.5 -166 599t-471 80.5t-294 -481.5t129.5 -595t460 -117.5t341.5 514.5zM387 356.5q-99 90.5 -108 299.5t140 329t280 -12t106.5 -344t-172 -287.5t-246.5 15zM275 -167q308 755 703 1572l-199 95q-304 -760 -647 -1580z" />
    <glyph glyph-name="ugrave" unicode="&#xf9;" horiz-adv-x="921" 
d="M834.5 268.5q-51.5 -208.5 -275.5 -280t-374 134t-122 1103.5l232 7q-44 -819 39 -939t240 -14t84 1053l228 10q0 -866 -51.5 -1074.5zM549 1429q-143 101 -253 169l93 149q142 -112 251 -210z" />
    <glyph glyph-name="uacute" unicode="&#xfa;" horiz-adv-x="921" 
d="M834.5 268.5q-51.5 -208.5 -275.5 -280t-374 134t-122 1103.5l232 7q-44 -819 39 -939t240 -14t84 1053l228 10q0 -866 -51.5 -1074.5zM297 1543q110 98 251 210l94 -149q-111 -68 -254 -169z" />
    <glyph glyph-name="ucircumflex" unicode="&#xfb;" horiz-adv-x="921" 
d="M834.5 268.5q-51.5 -208.5 -275.5 -280t-374 134t-122 1103.5l232 7q-44 -819 39 -939t240 -14t84 1053l228 10q0 -866 -51.5 -1074.5zM778 1533l-86 -111l-227 122l-257 -123l-61 116l319 200z" />
    <glyph glyph-name="udieresis" unicode="&#xfc;" horiz-adv-x="921" 
d="M834.5 268.5q-51.5 -208.5 -275.5 -280t-374 134t-122 1103.5l232 7q-44 -819 39 -939t240 -14t84 1053l228 10q0 -866 -51.5 -1074.5zM363.5 1646.5q39.5 -39.5 39.5 -94.5q0 -56 -39.5 -95.5t-94.5 -39.5q-56 0 -95 39.5t-39 95.5q0 55 39 94.5t95 39.5
q55 0 94.5 -39.5zM769.5 1646.5q39.5 -39.5 39.5 -94.5q0 -56 -39.5 -95.5t-94.5 -39.5q-56 0 -95 39.5t-39 95.5q0 55 39 94.5t95 39.5q55 0 94.5 -39.5z" />
    <glyph glyph-name="yacute" unicode="&#xfd;" horiz-adv-x="1074" 
d="M35 1294l232 44l244 -547l307 575l221 -57l-430 -748q-3 -354 8 -609l-242 -7q23 401 20 619zM370 1563q110 98 251 210l94 -149q-111 -68 -254 -169z" />
    <glyph glyph-name="thorn" unicode="&#xfe;" horiz-adv-x="927" 
d="M701.5 389q190.5 177 92.5 513t-620 262l15 -264q188 73 323.5 -4t96 -248.5t-337.5 -164.5q-32 738 -25 965l-211 -20q2 -507 10 -1462l204 -4l8 278q254 -28 444.5 149z" />
    <glyph glyph-name="ydieresis" unicode="&#xff;" horiz-adv-x="1074" 
d="M35 1294l232 44l244 -547l307 575l221 -57l-430 -748q-3 -354 8 -609l-242 -7q23 401 20 619zM426.5 1656.5q39.5 -39.5 39.5 -94.5q0 -56 -39.5 -95.5t-94.5 -39.5q-56 0 -95 39.5t-39 95.5q0 55 39 94.5t95 39.5q55 0 94.5 -39.5zM832.5 1656.5q39.5 -39.5 39.5 -94.5
q0 -56 -39.5 -95.5t-94.5 -39.5q-56 0 -95 39.5t-39 95.5q0 55 39 94.5t95 39.5q55 0 94.5 -39.5z" />
    <glyph glyph-name="OE" unicode="&#x152;" horiz-adv-x="1540" 
d="M1002.5 592.5q47.5 397.5 -166 599t-471 80.5t-294 -481.5t129.5 -595t460 -117.5t341.5 514.5zM387 356.5q-99 90.5 -108 299.5t140 329t280 -12t106.5 -344t-172 -287.5t-246.5 15zM800 1342q31 -685 11 -1356q328 6 637 -3v258l-400 -6v289h340l20 234l-384 4l-6 314
q223 -3 434 -18l6 314q-323 -14 -658 -30z" />
    <glyph glyph-name="oe" unicode="&#x153;" horiz-adv-x="1540" 
d="M1002.5 592.5q47.5 397.5 -166 599t-471 80.5t-294 -481.5t129.5 -595t460 -117.5t341.5 514.5zM387 356.5q-99 90.5 -108 299.5t140 329t280 -12t106.5 -344t-172 -287.5t-246.5 15zM800 1342q31 -685 11 -1356q328 6 637 -3v258l-400 -6v289h340l20 234l-384 4l-6 314
q223 -3 434 -18l6 314q-323 -14 -658 -30z" />
    <glyph glyph-name="Scaron" unicode="&#x160;" horiz-adv-x="923" 
d="M41 423l204 19q32 -313 196.5 -296.5t178.5 158t-275.5 281t-299.5 457t269.5 432t426.5 -63t133 -485.5l-248 -19q-20 365 -157 359t-175.5 -169.5t95 -264t291 -196.5t178 -251.5t-106.5 -328.5t-416 -141.5t-294 509.5zM471 1582l-319 200l61 116l257 -123l227 122
l86 -111z" />
    <glyph glyph-name="scaron" unicode="&#x161;" horiz-adv-x="923" 
d="M41 423l204 19q32 -313 196.5 -296.5t178.5 158t-275.5 281t-299.5 457t269.5 432t426.5 -63t133 -485.5l-248 -19q-20 365 -157 359t-175.5 -169.5t95 -264t291 -196.5t178 -251.5t-106.5 -328.5t-416 -141.5t-294 509.5zM471 1582l-319 200l61 116l257 -123l227 122
l86 -111z" />
    <glyph glyph-name="Ydieresis" unicode="&#x178;" horiz-adv-x="1074" 
d="M35 1294l232 44l244 -547l307 575l221 -57l-430 -748q-3 -354 8 -609l-242 -7q23 401 20 619zM426.5 1656.5q39.5 -39.5 39.5 -94.5q0 -56 -39.5 -95.5t-94.5 -39.5q-56 0 -95 39.5t-39 95.5q0 55 39 94.5t95 39.5q55 0 94.5 -39.5zM832.5 1656.5q39.5 -39.5 39.5 -94.5
q0 -56 -39.5 -95.5t-94.5 -39.5q-56 0 -95 39.5t-39 95.5q0 55 39 94.5t95 39.5q55 0 94.5 -39.5z" />
    <glyph glyph-name="Zcaron" unicode="&#x17d;" horiz-adv-x="811" 
d="M724 1340l10 -287l-443 -800l485 31l-12 -270q-281 0 -705 -11l-6 256l426 813q-174 -8 -444 -25l6 261zM411 1473l-319 200l61 116l257 -123l227 122l86 -111z" />
    <glyph glyph-name="zcaron" unicode="&#x17e;" horiz-adv-x="811" 
d="M724 1340l10 -287l-443 -800l485 31l-12 -270q-281 0 -705 -11l-6 256l426 813q-174 -8 -444 -25l6 261zM411 1473l-319 200l61 116l257 -123l227 122l86 -111z" />
    <glyph glyph-name="endash" unicode="&#x2013;" horiz-adv-x="701" 
d="M57 757l596 17l-13 -239l-587 22z" />
    <glyph glyph-name="emdash" unicode="&#x2014;" horiz-adv-x="883" 
d="M57 757l786 -3l-3 -199l-787 2z" />
    <glyph glyph-name="quoteleft" unicode="&#x2018;" horiz-adv-x="373" 
d="M309 1160l3 -267l-273 -9q-20 311 49 440.5t186 133.5l17 -130q-113 -31 -121 -161z" />
    <glyph glyph-name="quoteright" unicode="&#x2019;" horiz-adv-x="373" 
d="M48 1162l-13 287l283 9q20 -311 -49 -440.5t-186 -133.5l-17 130q113 31 121 161z" />
    <glyph glyph-name="quotesinglbase" unicode="&#x201a;" horiz-adv-x="373" 
d="M48 -13l-13 287l283 9q20 -311 -49 -440.5t-186 -133.5l-17 130q113 31 121 161z" />
    <glyph glyph-name="quotedblleft" unicode="&#x201c;" horiz-adv-x="731" 
d="M679 1150l3 -257l-273 -9q-20 311 49 440.5t186 133.5l17 -130q-113 -31 -121 -161zM309 1180l-7 -287l-263 -9q-20 311 49 440.5t186 133.5l17 -130q-113 -31 -121 -161z" />
    <glyph glyph-name="quotedblright" unicode="&#x201d;" horiz-adv-x="731" 
d="M48 1162l-13 287l283 9q20 -311 -49 -440.5t-186 -133.5l-17 130q113 31 121 161zM418 1162l-13 287l283 9q20 -311 -49 -440.5t-186 -133.5l-17 130q113 31 121 161z" />
    <glyph glyph-name="quotedblbase" unicode="&#x201e;" horiz-adv-x="731" 
d="M48 -9l-13 287l283 9q20 -311 -49 -440.5t-186 -133.5l-17 130q113 31 121 161zM418 -9l-13 287l283 9q20 -311 -49 -440.5t-186 -133.5l-17 130q113 31 121 161z" />
    <glyph glyph-name="bullet" unicode="&#x2022;" horiz-adv-x="351" 
d="M42 602q-2 162 -1 277h262l-7 -285z" />
    <glyph glyph-name="ellipsis" unicode="&#x2026;" horiz-adv-x="1257" 
d="M48 -4q-9 162 -13 277l281 12l-13 -285zM444 16q0 162 3 277l261 -2l-9 -285zM858 4q-9 162 -13 277l281 12l-13 -285z" />
  </font>
</defs>
</svg>
